<svg width="93" height="122" viewBox="0 0 93 122" fill="none" xmlns="http://www.w3.org/2000/svg">
<g clip-path="url(#clip0_8_1783)">
<path d="M7.66111 58.9688C7.63549 69.7088 10.7277 80.2262 16.5641 89.2502C22.4004 98.2742 30.7311 105.418 40.5493 109.819L45.635 112.058L51.4166 109.534C61.4256 105.243 69.9472 98.1077 75.9184 89.0164C81.8895 79.925 85.0461 69.2805 84.9942 58.4108V31.2528L45.7781 10.0974L7.66111 31.2465V58.9688ZM6.1068 58.9688V30.7791C6.10706 30.6391 6.14449 30.5016 6.21532 30.3808C6.28616 30.26 6.38786 30.16 6.51001 30.0912L45.4009 8.50772C45.5138 8.44694 45.6401 8.41488 45.7684 8.41488C45.8966 8.41488 46.0229 8.44694 46.1358 8.50772L86.1388 30.0848C86.2636 30.1528 86.3676 30.2531 86.4398 30.3754C86.5119 30.4977 86.5495 30.6372 86.5486 30.7791V58.4108C86.5999 69.586 83.354 80.5289 77.2154 89.876C71.0768 99.2231 62.3171 106.561 52.028 110.975L45.9407 113.635C45.8431 113.677 45.738 113.698 45.6318 113.698C45.5256 113.698 45.4205 113.677 45.3229 113.635L39.925 111.254C29.8286 106.728 21.2619 99.3817 15.2605 90.1019C9.25903 80.8222 6.0797 70.0067 6.1068 58.9625M3.28427 27.7356V58.6833C3.28427 83.3429 17.7546 105.692 40.0876 115.582L45.544 117.99L51.7808 115.29C62.9793 110.489 72.5131 102.503 79.1933 92.3307C85.8734 82.1581 89.4041 70.2482 89.345 58.0864V27.7809L45.6936 4.22467L3.28427 27.7356ZM44.9066 0.843742C45.1473 0.713678 45.4166 0.645386 45.6903 0.645386C45.964 0.645386 46.2334 0.713678 46.474 0.843742L91.7839 25.2891C92.0484 25.4322 92.2691 25.644 92.4225 25.9022C92.576 26.1605 92.6564 26.4553 92.6553 26.7556V58.0604C92.6553 84.4461 77.125 108.1 53.0881 118.327L46.1943 121.338C45.9891 121.427 45.7677 121.473 45.544 121.473C45.3202 121.473 45.0989 121.427 44.8936 121.338L38.7804 118.639C15.2507 108.223 0.0325317 84.6926 0.00651775 58.6897V26.7556C0.00603059 26.4587 0.0846538 26.1671 0.234362 25.9105C0.384071 25.6539 0.599479 25.4416 0.858474 25.2955L44.9066 0.843742ZM35.0343 36.6388C36.5562 35.5616 37.9609 34.0433 39.7298 33.7773C38.9913 34.4186 38.1818 34.9737 37.3171 35.4319C36.5236 35.8732 36.166 36.0808 36.296 36.5156C36.4261 36.9504 36.7383 36.9117 37.148 36.8987C38.1105 36.8987 40.5753 35.7565 40.6078 35.75C40.7444 35.6852 41.1086 35.5812 41.5638 35.4449C42.4259 35.2015 43.2747 34.9133 44.1067 34.5818C45.1863 34.0951 45.4074 32.5572 45.4464 32.064C46.4181 30.7313 47.6814 29.6371 49.1404 28.8646C49.5681 28.7066 50.027 28.6511 50.4801 28.7024C52.3206 28.7024 54.4343 29.7083 56.2747 30.8764C57.9907 31.9392 59.4567 33.3591 60.5723 35.039C61.688 36.7189 62.4271 38.6193 62.7392 40.6104C62.9627 41.9837 62.9384 43.3857 62.6677 44.7505H68.6249C68.8579 42.9848 68.7742 41.192 68.3778 39.4554C67.8017 36.7277 66.5951 34.1718 64.854 31.9917C63.1129 29.8117 60.8855 28.0676 58.3494 26.8985C55.8845 25.8277 53.2051 24.8804 50.116 25.393C48.7307 25.6461 47.7487 26.3142 46.3829 27.2033C45.26 27.8586 43.9764 28.189 42.6759 28.1574C41.7777 27.9591 40.8546 27.898 39.938 27.9758H39.6323C38.8761 28.0229 38.1413 28.245 37.4862 28.6247L37.1935 28.7673C36.9209 28.8769 36.6405 28.9659 36.3546 29.0335C35.9752 29.1014 35.6102 29.2331 35.275 29.4229C34.8522 29.7279 34.3515 31.0127 34.7807 31.7135C35.431 32.7648 40.3607 31.9342 41.1021 31.7135L41.4858 31.6226C41.0587 32.0037 40.6847 32.4402 40.3737 32.9205C40.3282 32.9918 40.2501 33.0503 40.1981 33.1217C38.9472 33.2501 37.7431 33.6655 36.6797 34.3352C34.6832 35.1075 33.2654 32.9464 31.4769 33.2319C33.1549 33.1865 34.0783 35.0101 35.7302 35.1074C34.0328 37.4566 31.9452 34.1924 30.0072 35.7564C31.9582 34.6986 33.0508 37.2426 35.0018 36.5222M64.5927 69.8645C64.5927 69.8903 64.603 69.915 64.6213 69.9333C64.6396 69.9515 64.6644 69.9618 64.6903 69.9618C64.7161 69.9618 64.741 69.9515 64.7593 69.9333C64.7775 69.915 64.7878 69.8903 64.7878 69.8645C64.7878 69.8387 64.7775 69.814 64.7593 69.7957C64.741 69.7775 64.7161 69.7672 64.6903 69.7672C64.6644 69.7672 64.6396 69.7775 64.6213 69.7957C64.603 69.814 64.5927 69.8387 64.5927 69.8645ZM49.3745 57.061L49.1599 61.9603C49.5176 61.7786 49.8753 61.5907 50.22 61.396C52.3238 60.2422 54.2116 58.7338 55.8 56.9377C59.7325 55.7289 63.3985 53.7842 66.6023 51.2076C65.8149 52.7409 64.8875 54.1985 63.8318 55.5619C60.6516 59.7605 56.9511 63.2972 52.2686 65.4452C51.1695 65.9903 50.0379 66.4641 48.9518 66.9313L48.334 81.2079C48.6655 81.1322 48.9626 80.9493 49.179 80.6876C49.3955 80.4259 49.5191 80.0999 49.5306 79.7608L49.7258 75.2182C50.282 75.6029 50.756 76.0941 51.12 76.6634C51.484 77.2328 51.7307 77.8687 51.8459 78.5342C51.9515 79.3437 51.9118 80.1657 51.7288 80.9614C51.5232 81.8872 50.9984 82.7116 50.246 83.291C49.9941 83.46 49.7336 83.6161 49.4656 83.7583C53.7932 84.233 57.9734 85.6057 61.7377 87.7882H42.4028C41.1305 88.9074 40.2659 90.4158 39.9445 92.0776C39.7223 93.1662 39.8258 94.296 40.2421 95.3264C40.6584 96.3567 41.3691 97.2422 42.2858 97.8727C43.2382 98.4674 44.3605 98.7318 45.479 98.6252C46.0272 98.5428 46.5447 98.3203 46.9812 97.9792C47.4177 97.638 47.7583 97.1898 47.9698 96.6784L48.5096 96.8473C48.2981 97.4932 47.9209 98.0726 47.4155 98.528C46.91 98.9833 46.294 99.2989 45.6285 99.4431C44.2954 99.687 42.9188 99.4694 41.7264 98.8264C39.2811 97.5286 38.0129 94.5891 38.3186 91.857C38.4737 90.3965 38.9875 88.9966 39.8144 87.7815H30.9111C34.9532 85.4252 39.4782 84.0141 44.1457 83.6544L44.4189 83.4662L44.0872 75.7959L43.9766 72.4603L43.8596 69.7476L43.6255 69.8775C43.3502 70.0387 43.1246 70.2721 42.9732 70.5524C42.8218 70.8328 42.7505 71.1495 42.767 71.4675L42.9816 75.9451C41.7937 75.4789 40.7911 74.6381 40.1266 73.5506C39.1381 71.4934 39.5087 69.8255 40.2762 68.1512C41.0886 66.7889 42.2518 65.6686 43.645 64.9065L43.3133 57.1193C35.0987 56.305 27.5369 52.2922 22.268 45.9511H70.4459C65.1794 52.2918 57.6198 56.3047 49.4071 57.1193" fill="#004E3F"/>
</g>
<defs>
<clipPath id="clip0_8_1783">
<rect width="93" height="122" fill="white"/>
</clipPath>
</defs>
</svg>
