<svg width="332" height="71" viewBox="0 0 332 71" fill="none" xmlns="http://www.w3.org/2000/svg">
<g clip-path="url(#clip0_3_803)">
<path d="M33.0015 13.6381V20.6825H30.2857C30.2465 20.2055 30.2139 19.7742 30.1812 19.3756C30.1615 19.0616 30.109 18.7506 30.0245 18.4476C29.9711 18.2377 29.8465 18.0529 29.672 17.9249C29.4464 17.7953 29.1872 17.7361 28.9278 17.755H27.7134V29.1777C27.7041 29.4388 27.7395 29.6996 27.8179 29.9488C27.8382 30.0159 27.8718 30.0783 27.9166 30.1322C27.9615 30.1861 28.0167 30.2304 28.079 30.2625C28.2231 30.3044 28.3731 30.3221 28.523 30.3147H29.3456V34.1179H21.4396V30.3474H22.2883C22.3934 30.3571 22.4994 30.3459 22.6003 30.3145C22.7011 30.2831 22.7947 30.2321 22.8758 30.1644C23.0415 29.8757 23.108 29.5405 23.0652 29.2104V18.5457C23.1075 18.2197 23.0409 17.8888 22.8758 17.6046C22.7952 17.5358 22.7018 17.4836 22.601 17.4511C22.5001 17.4186 22.3939 17.4064 22.2883 17.4151H21.4396V13.6381H33.0015Z" fill="#004E3F"/>
<path d="M34.3072 13.638H41.9194V17.402H41.6452C41.5793 17.3923 41.512 17.3981 41.4486 17.4189C41.3852 17.4397 41.3276 17.4749 41.2801 17.5217C41.2326 17.5686 41.1967 17.6259 41.1751 17.689C41.1535 17.7521 41.1468 17.8194 41.1556 17.8856C41.1479 17.9769 41.1479 18.0687 41.1556 18.1601C41.1831 18.2619 41.2158 18.3622 41.2535 18.4606C41.3058 18.5848 41.3449 18.6894 41.3841 18.7743L42.9836 22.8455L44.0347 19.1468C44.1698 18.7211 44.2638 18.2835 44.3154 17.8398C44.3154 17.5327 44.0934 17.3824 43.6625 17.3824H43.3884V13.6184H49.2052V17.3824C48.8011 17.3422 48.395 17.4363 48.0497 17.6503C47.8169 17.9326 47.6676 18.2744 47.6188 18.6371C47.5731 18.8135 47.5405 18.9638 47.5078 19.0945L47.423 19.3886C47.3838 19.5193 47.3512 19.6369 47.312 19.7415L45.6407 25.6227C45.1874 27.3052 44.647 28.9629 44.0216 30.5891C43.6761 31.5369 43.1969 32.4304 42.5984 33.2422C42.2505 33.7192 41.7753 34.0883 41.2274 34.3074C40.6518 34.4799 40.0523 34.5593 39.4517 34.5427C38.975 34.5457 38.4989 34.5085 38.0285 34.4316C37.592 34.3474 37.1653 34.2182 36.7554 34.046V28.7267C36.9639 28.9753 37.2207 29.1788 37.5103 29.3249C37.7999 29.4709 38.1161 29.5565 38.4397 29.5763C38.7813 29.5949 39.1193 29.4983 39.3994 29.3018C39.673 29.0566 39.8683 28.7361 39.9609 28.3804L36.3702 19.4017C36.1602 18.8426 35.907 18.3008 35.6129 17.781C35.5164 17.6444 35.3847 17.5364 35.2319 17.4685C35.079 17.4006 34.9107 17.3754 34.7446 17.3955H34.3072V13.638Z" fill="#004E3F"/>
<path d="M63.0848 13.6381V19.5193H60.3494L60.3037 19.075C60.293 18.7155 60.1967 18.3638 60.023 18.049C59.896 17.9343 59.7454 17.8491 59.5818 17.7994C59.4181 17.7497 59.2455 17.7367 59.0763 17.7615H56.8044V21.6823H58.5214C59.6449 21.6502 60.761 21.8736 61.7857 22.3358C62.6771 22.7661 63.3955 23.4875 63.8225 24.3812C64.3148 25.4719 64.5494 26.6615 64.5081 27.8577C64.5491 28.9777 64.3441 30.093 63.9074 31.125C63.5462 31.9212 62.952 32.5888 62.2035 33.0397C61.4269 33.4885 60.5714 33.7835 59.6835 33.9088C58.5501 34.0655 57.4066 34.1376 56.2626 34.1245H50.5044V30.3539H51.3531C51.4573 30.3642 51.5625 30.3533 51.6623 30.3218C51.7622 30.2904 51.8546 30.2391 51.9342 30.171C52.0998 29.8822 52.1663 29.5471 52.1235 29.2169V18.5457C52.1658 18.2197 52.0993 17.8888 51.9342 17.6046C51.8551 17.5354 51.7629 17.4829 51.663 17.4503C51.5632 17.4177 51.4577 17.4058 51.3531 17.4151H50.5044V13.6381H63.0848ZM56.8044 29.9749H57.0721C57.4461 29.9797 57.8192 29.9358 58.1819 29.8442C58.5197 29.7463 58.8114 29.5307 59.0045 29.2365C59.26 28.8025 59.3783 28.3014 59.344 27.7989C59.3764 27.5054 59.3421 27.2084 59.2438 26.93C59.1454 26.6517 58.9855 26.3991 58.776 26.1913C58.3663 25.8677 57.8548 25.7008 57.3332 25.7208C57.1564 25.7182 56.9796 25.7291 56.8044 25.7535V29.9749Z" fill="#004E3F"/>
<path d="M65.879 34.1179V30.3474H66.7277C66.8329 30.3571 66.9389 30.3459 67.0397 30.3145C67.1405 30.2831 67.2342 30.2321 67.3153 30.1644C67.4778 29.8746 67.5419 29.5398 67.4981 29.2104V18.5522C67.5414 18.227 67.4772 17.8965 67.3153 17.6112C67.2342 17.5435 67.1405 17.4925 67.0397 17.4611C66.9389 17.4297 66.8329 17.4185 66.7277 17.4282H65.879V13.6381H78.1657V19.8853H75.3388C75.3039 19.4619 75.245 19.0408 75.1625 18.6241C75.1369 18.3465 75.0061 18.0893 74.797 17.9052C74.5309 17.7939 74.2424 17.7469 73.9548 17.768H72.1725V21.6497H75.2083V25.7731H72.1725V29.9684H73.8699C74.2391 30.006 74.61 29.9161 74.921 29.7135C75.1405 29.4853 75.2861 29.196 75.3388 28.8836C75.4368 28.4001 75.5086 28.021 75.5347 27.7596H78.4137V34.1179H65.879Z" fill="#004E3F"/>
<path d="M86.4699 26.7597V29.1841C86.4606 29.4452 86.4959 29.706 86.5743 29.9552C86.5946 30.0224 86.6282 30.0847 86.6731 30.1386C86.7179 30.1925 86.7732 30.2368 86.8355 30.2689C86.9795 30.3109 87.1296 30.3285 87.2794 30.3212H88.102V34.1179H80.196V30.3473H81.0447C81.1499 30.357 81.2559 30.3458 81.3567 30.3144C81.4575 30.283 81.5512 30.232 81.6323 30.1643C81.7979 29.8756 81.8644 29.5405 81.8216 29.2103V18.5456C81.8639 18.2196 81.7974 17.8887 81.6323 17.6045C81.5517 17.5357 81.4583 17.4835 81.3574 17.451C81.2566 17.4185 81.1503 17.4063 81.0447 17.415H80.196V13.638H86.1369C87.5496 13.6053 88.9588 13.7904 90.3152 14.1869C91.4248 14.5312 92.3701 15.2705 92.9723 16.2649C93.6836 17.5722 94.0159 19.0524 93.9319 20.5387C93.9319 22.852 93.377 24.4704 92.2672 25.394C91.1573 26.3219 89.5709 26.7859 87.4949 26.7859C87.0509 26.7859 86.7114 26.7793 86.4699 26.7597ZM86.4699 17.7614V22.6363C87.123 22.6855 87.7708 22.4873 88.2848 22.0809C88.5195 21.8159 88.6955 21.5043 88.8013 21.1664C88.907 20.8285 88.9402 20.472 88.8985 20.1204C88.9183 19.6447 88.829 19.1708 88.6374 18.7351C88.4756 18.3888 88.192 18.1143 87.8409 17.964C87.4012 17.8096 86.9346 17.7474 86.4699 17.781V17.7614Z" fill="#004E3F"/>
<path d="M95.1006 34.1179V30.3474H95.9493C96.0544 30.3571 96.1604 30.3459 96.2613 30.3145C96.3621 30.2831 96.4557 30.2321 96.5368 30.1644C96.6993 29.8746 96.7634 29.5398 96.7196 29.2103V18.5587C96.7615 18.2314 96.6975 17.8993 96.5368 17.6112C96.3717 17.477 96.1613 17.4115 95.9493 17.4282H95.1006V13.6642H102.243V17.4282H102.132C102.019 17.4127 101.903 17.4254 101.796 17.4653C101.689 17.5052 101.594 17.571 101.518 17.6569C101.395 17.9567 101.346 18.2817 101.374 18.6044V21.2641H104.606V18.6044C104.625 18.2959 104.58 17.9868 104.475 17.6961C104.397 17.5197 104.175 17.4282 103.823 17.4282H103.712V13.6642H110.893V17.4282H110.038C109.82 17.4131 109.604 17.4834 109.437 17.6242C109.258 17.9005 109.184 18.2322 109.228 18.5587V29.2103C109.184 29.541 109.258 29.8767 109.437 30.1579C109.605 30.2964 109.821 30.3643 110.038 30.3474H110.88V34.1179H103.699V30.3474H103.81C103.916 30.3576 104.023 30.3466 104.125 30.3152C104.227 30.2838 104.322 30.2326 104.404 30.1644C104.569 29.8757 104.636 29.5405 104.593 29.2103V25.3614H101.361V29.2103C101.351 29.4719 101.378 29.7337 101.44 29.988C101.455 30.0537 101.485 30.1152 101.527 30.1683C101.568 30.2213 101.621 30.2646 101.681 30.2951C101.838 30.3384 102.002 30.3561 102.164 30.3474H102.249V34.1179H95.1006Z" fill="#004E3F"/>
<path d="M126.359 21.4797H121.071C121.078 20.3906 120.942 19.3052 120.666 18.2516C120.582 17.9412 120.391 17.6703 120.127 17.4864C119.863 17.3024 119.544 17.2171 119.223 17.2452C119.031 17.2365 118.84 17.2661 118.659 17.3323C118.479 17.3985 118.313 17.5 118.172 17.6308C117.888 17.9302 117.684 18.2965 117.578 18.6959C117.436 19.1949 117.346 19.7074 117.31 20.2251C117.271 20.7871 117.245 21.4471 117.245 22.1855V23.7669C117.245 23.976 117.245 24.1982 117.245 24.4204C117.245 24.6426 117.245 25.1392 117.245 25.858C117.225 26.8745 117.308 27.8905 117.493 28.8901C117.553 29.3884 117.784 29.8504 118.146 30.1971C118.406 30.3474 118.696 30.4387 118.994 30.4647C119.293 30.4906 119.594 30.4506 119.876 30.3474C120.143 30.2293 120.37 30.0364 120.529 29.7919C120.803 29.3678 120.988 28.8919 121.071 28.3935C121.239 27.5482 121.314 26.687 121.293 25.8253H126.568C126.558 27.3654 126.231 28.8868 125.608 30.2951C125.078 31.5633 124.208 32.6601 123.095 33.4645C121.978 34.2214 120.656 34.6161 119.308 34.595C118.006 34.6053 116.732 34.2214 115.652 33.4937C114.572 32.766 113.737 31.7285 113.256 30.5173C112.473 28.9315 112.081 26.7163 112.081 23.8715C112.055 22.0146 112.347 20.167 112.943 18.4084C113.422 16.9302 114.282 15.6048 115.437 14.566C116.48 13.6416 117.83 13.1405 119.223 13.161C120.237 13.1414 121.242 13.3585 122.158 13.7953C123.073 14.232 123.875 14.8762 124.498 15.6769C125.109 16.4764 125.575 17.3765 125.876 18.3365C126.193 19.3541 126.356 20.4137 126.359 21.4797Z" fill="#004E3F"/>
<path d="M153.629 13.6381H159.308V17.4021H158.46C158.239 17.3832 158.02 17.4486 157.846 17.585C157.688 17.8743 157.624 18.2054 157.663 18.5326V29.1842C157.623 29.5135 157.687 29.8472 157.846 30.1383C158.018 30.2778 158.239 30.3435 158.46 30.3213H159.308V34.1179H151.82V30.3474H152.218C152.551 30.3474 152.767 30.2559 152.871 30.0664C152.978 29.783 153.025 29.4803 153.008 29.1777V24.0283H152.845L149.529 34.1179H143.771V30.3474H144.639C144.972 30.3474 145.187 30.2755 145.292 30.1318C145.41 29.8285 145.457 29.502 145.429 29.1777V18.5326C145.47 18.2046 145.403 17.8721 145.239 17.585C145.074 17.4509 144.864 17.3854 144.652 17.4021H143.81V13.6381H151.265V17.4021H150.887C150.666 17.3832 150.447 17.4486 150.273 17.585C150.106 17.8709 150.039 18.2044 150.084 18.5326V24.2113H150.247L153.629 13.6381Z" fill="#004E3F"/>
<path d="M161.104 34.1179V30.3474H161.952C162.057 30.3571 162.164 30.3459 162.264 30.3145C162.365 30.2831 162.459 30.2321 162.54 30.1644C162.702 29.8746 162.767 29.5398 162.723 29.2104V18.5522C162.766 18.227 162.702 17.8965 162.54 17.6112C162.459 17.5435 162.365 17.4925 162.264 17.4611C162.164 17.4297 162.057 17.4185 161.952 17.4282H161.104V13.6381H173.364V19.8853H170.537C170.498 19.454 170.439 19.0358 170.361 18.6241C170.335 18.3465 170.205 18.0893 169.995 17.9052C169.729 17.7946 169.441 17.7476 169.153 17.768H167.371V21.6497H170.407V25.7731H167.371V29.9684H169.068C169.237 30.0087 169.413 30.0116 169.584 29.9769C169.754 29.9421 169.915 29.8706 170.054 29.7674C170.194 29.6641 170.31 29.5315 170.393 29.3789C170.477 29.2262 170.526 29.0572 170.537 28.8836C170.635 28.4001 170.701 28.021 170.733 27.7596H173.612V34.1179H161.104Z" fill="#004E3F"/>
<path d="M133.984 25.5051V29.1254C133.94 29.4693 134.016 29.8181 134.2 30.1121C134.288 30.1898 134.392 30.2485 134.504 30.2844C134.617 30.3204 134.735 30.3329 134.853 30.3212H135.212V34.1179H127.73V30.3474H128.546C128.762 30.3675 128.978 30.3018 129.147 30.1644C129.309 29.8745 129.373 29.5398 129.329 29.2103V18.5587C129.371 18.2314 129.307 17.8993 129.147 17.6111C128.977 17.4761 128.762 17.4107 128.546 17.4282H127.73V13.6642H135.192V17.4282H134.846C134.626 17.4178 134.409 17.49 134.239 17.6307C134.076 17.7614 133.997 18.1078 133.997 18.6567V21.4078H134.396C134.584 21.4211 134.77 21.3627 134.918 21.2445C135.104 20.999 135.239 20.7192 135.316 20.4211C135.466 19.9898 135.656 19.3232 135.891 18.428C136.126 17.5327 136.348 16.7486 136.485 16.3042C136.644 15.8057 136.851 15.3242 137.105 14.8665C137.362 14.3833 137.726 13.9653 138.169 13.6445C138.632 13.3234 139.186 13.1607 139.749 13.1806C140.457 13.1943 141.156 13.3383 141.812 13.6053V17.8464C141.707 17.8008 141.593 17.7806 141.479 17.7876C141.187 17.7565 140.893 17.8189 140.638 17.9656C140.384 18.1123 140.182 18.336 140.062 18.6044C139.951 18.9246 139.84 19.5454 139.625 20.114C139.434 20.6239 139.216 21.1234 138.972 21.6104C138.778 21.9631 138.516 22.2739 138.202 22.5253C137.612 22.8236 136.976 23.0202 136.321 23.1069V23.4924C136.944 23.4892 137.563 23.5953 138.149 23.8061C138.586 24.0589 138.948 24.4216 139.201 24.8582C139.545 25.4624 139.766 26.1286 139.853 26.8186C139.853 26.9428 139.906 27.1127 139.938 27.3283C139.972 27.5268 140.024 27.7216 140.095 27.9099C140.16 28.0647 140.255 28.2048 140.376 28.3216C140.661 28.6016 141.03 28.7806 141.427 28.8313C141.642 28.8212 141.853 28.7678 142.047 28.6745V34.1179C141.476 34.4439 140.83 34.6151 140.173 34.6145C139.599 34.6276 139.032 34.4757 138.541 34.1767C138.056 33.8625 137.654 33.4339 137.373 32.9286C137.031 32.3269 136.757 31.6891 136.556 31.027C136.321 30.3016 136.067 29.3737 135.793 28.2366C135.645 27.51 135.442 26.7956 135.186 26.0998C135.135 25.9385 135.036 25.797 134.901 25.695C134.767 25.5931 134.603 25.5358 134.435 25.5313L133.984 25.5051Z" fill="#004E3F"/>
<path d="M226.434 13.6381L229.561 28.5961C229.656 29.068 229.796 29.5297 229.979 29.9749C230.054 30.0965 230.162 30.194 230.29 30.2554C230.419 30.3169 230.563 30.3398 230.704 30.3213H231.043V34.1179H223.634V30.3474H224.169C224.567 30.3474 224.769 30.1971 224.769 29.8834C224.757 29.6871 224.727 29.4924 224.678 29.3018C224.682 29.2366 224.682 29.1711 224.678 29.1058C224.678 29.0339 224.678 28.9686 224.678 28.9228H220.069C219.992 29.1507 219.948 29.3883 219.938 29.6286C219.928 29.7956 219.961 29.9625 220.036 30.1121C220.087 30.2049 220.171 30.2749 220.271 30.3082C220.371 30.3353 220.475 30.3485 220.578 30.3474H220.8V34.1179H214.84V30.3474H215.186C215.42 30.3618 215.651 30.2923 215.838 30.1514C216.039 29.952 216.185 29.7045 216.263 29.4325C216.433 28.9181 216.575 28.3945 216.687 27.8642L218.842 18.8005C218.938 18.4837 218.999 18.1571 219.024 17.8268C219.03 17.7675 219.02 17.7076 218.995 17.6536C218.969 17.5996 218.93 17.5533 218.881 17.5197C218.626 17.4372 218.358 17.4061 218.091 17.4282H217.712V13.6642L226.434 13.6381ZM222.328 18.9116L220.97 24.7929H223.686L222.439 18.9116H222.328Z" fill="#004E3F"/>
<path d="M232.375 13.6381H248.141V17.4151H247.293C247.078 17.3985 246.865 17.4665 246.699 17.6046C246.534 17.8888 246.467 18.2197 246.509 18.5457V29.1515C246.468 29.488 246.534 29.8289 246.699 30.1252C246.78 30.196 246.874 30.2498 246.976 30.2835C247.078 30.3172 247.186 30.33 247.293 30.3213H248.141V34.1179H240.96V30.3474H241.071C241.187 30.3638 241.305 30.3554 241.418 30.3227C241.53 30.29 241.635 30.2339 241.724 30.1579C241.885 29.8698 241.949 29.5376 241.907 29.2104V17.7811H238.649V29.2038C238.606 29.534 238.673 29.8691 238.838 30.1579C239.005 30.2943 239.218 30.36 239.432 30.3409H239.537V34.1179H232.356V30.3474H233.204C233.309 30.3571 233.415 30.3459 233.516 30.3145C233.617 30.2831 233.711 30.2321 233.792 30.1644C233.951 29.8733 234.015 29.5397 233.975 29.2104V18.5457C234.015 18.2205 233.951 17.8911 233.792 17.6046C233.711 17.5358 233.618 17.4836 233.517 17.4511C233.416 17.4186 233.31 17.4064 233.204 17.4151H232.356L232.375 13.6381Z" fill="#004E3F"/>
<path d="M249.532 13.6381H263.288V20.4995H260.676C260.624 20.1532 260.585 19.8787 260.559 19.6566C260.533 19.4344 260.487 19.1338 260.428 18.7482C260.426 18.4608 260.332 18.1815 260.16 17.951C259.883 17.7798 259.556 17.7083 259.233 17.7484H258.744V29.2104C258.699 29.5398 258.763 29.8749 258.927 30.1644C259.007 30.2332 259.101 30.2854 259.201 30.318C259.302 30.3505 259.409 30.3627 259.514 30.3539H260.363V34.1179H252.45V30.3539H253.299C253.52 30.3723 253.74 30.3044 253.913 30.1644C254.079 29.876 254.146 29.5406 254.102 29.2104V17.7811H253.612C253.326 17.761 253.04 17.8103 252.777 17.9249C252.581 18.1041 252.456 18.3475 252.424 18.611C252.346 18.9704 252.254 19.6108 252.157 20.5322H249.545L249.532 13.6381Z" fill="#004E3F"/>
<path d="M264.685 34.1179V30.3474H265.533C265.638 30.3577 265.743 30.3467 265.843 30.3153C265.942 30.2838 266.035 30.2325 266.114 30.1644C266.28 29.8757 266.347 29.5405 266.304 29.2104V18.5522C266.346 18.2262 266.28 17.8954 266.114 17.6112C266.035 17.5431 265.942 17.4918 265.843 17.4603C265.743 17.4289 265.638 17.418 265.533 17.4282H264.685V13.6381H276.971V19.8853H274.144C274.112 19.462 274.055 19.0409 273.975 18.6241C273.945 18.3463 273.812 18.0899 273.603 17.9052C273.339 17.7937 273.052 17.7467 272.767 17.768H270.985V21.6497H274.014V25.7731H270.985V29.9684H272.682C273.049 30.0061 273.418 29.9161 273.727 29.7135C273.949 29.487 274.095 29.1969 274.144 28.8836C274.229 28.5127 274.295 28.1375 274.34 27.7596H277.226V34.1179H264.685Z" fill="#004E3F"/>
<path d="M304.9 13.6381H310.573V17.4021H309.725C309.506 17.3836 309.289 17.449 309.118 17.585C308.957 17.8732 308.893 18.2053 308.935 18.5326V29.1842C308.891 29.5137 308.955 29.8484 309.118 30.1383C309.288 30.2768 309.506 30.3425 309.725 30.3213H310.573V34.1179H303.098V30.3474H303.497C303.83 30.3474 304.045 30.2559 304.149 30.0664C304.262 29.7845 304.311 29.4809 304.293 29.1777V24.0283H304.13L300.8 34.1179H295.036V30.3474H295.884C296.217 30.3474 296.433 30.2755 296.537 30.1318C296.652 29.8278 296.697 29.5015 296.668 29.1777V18.5326C296.71 18.2053 296.646 17.8732 296.485 17.585C296.32 17.4509 296.109 17.3854 295.897 17.4021H295.049V13.6381H302.498V17.4021H302.119C301.886 17.3757 301.652 17.4413 301.466 17.585C301.302 17.8721 301.236 18.2046 301.277 18.5326V24.2113H301.44L304.9 13.6381Z" fill="#004E3F"/>
<path d="M285.249 25.5051V29.1253C285.206 29.4701 285.285 29.8191 285.471 30.1121C285.56 30.1905 285.663 30.2495 285.776 30.2856C285.888 30.3216 286.007 30.3337 286.124 30.3212H286.483V34.1179H279.002V30.3473H279.818C279.924 30.3575 280.031 30.3466 280.133 30.3152C280.235 30.2838 280.33 30.2325 280.412 30.1644C280.577 29.8756 280.644 29.5405 280.601 29.2103V18.5587C280.642 18.2306 280.576 17.8982 280.412 17.6111C280.244 17.4765 280.032 17.4111 279.818 17.4282H279.002V13.6641H286.457V17.4282H286.098C285.878 17.419 285.662 17.4911 285.491 17.6307C285.334 17.7614 285.249 18.1078 285.249 18.6567V21.4078H285.654C285.841 21.4214 286.025 21.3629 286.17 21.2444C286.361 21.0015 286.499 20.7209 286.575 20.4211C286.718 19.9898 286.914 19.3232 287.143 18.428C287.371 17.5327 287.606 16.7485 287.743 16.3042C287.902 15.8057 288.11 15.3242 288.364 14.8665C288.618 14.3837 288.98 13.9657 289.421 13.6445C289.886 13.322 290.443 13.1592 291.008 13.1806C291.715 13.1949 292.415 13.3388 293.071 13.6053V17.8464C292.964 17.8002 292.847 17.7801 292.731 17.7876C292.44 17.7559 292.146 17.818 291.892 17.9649C291.639 18.1118 291.439 18.3358 291.321 18.6044C291.203 18.9246 291.092 19.5454 290.877 20.1139C290.689 20.6251 290.471 21.1247 290.224 21.6104C290.03 21.9614 289.771 22.272 289.46 22.5252C288.87 22.822 288.235 23.0186 287.58 23.1068V23.4924C288.203 23.4892 288.822 23.5953 289.408 23.8061C289.844 24.0573 290.204 24.4205 290.453 24.8582C290.803 25.4598 291.025 26.1271 291.105 26.8186C291.105 26.9427 291.158 27.1126 291.197 27.3283C291.224 27.5281 291.277 27.7235 291.354 27.9099C291.418 28.0633 291.511 28.2031 291.628 28.3216C291.914 28.6 292.283 28.7787 292.679 28.8313C292.905 28.8264 293.128 28.7729 293.332 28.6744V34.1179C292.763 34.4437 292.12 34.6149 291.465 34.6145C290.89 34.6294 290.323 34.4774 289.832 34.1767C289.345 33.8644 288.944 33.4354 288.664 32.9286C288.323 32.3258 288.047 31.6883 287.841 31.027C287.613 30.3016 287.358 29.3737 287.084 28.2366C286.938 27.5088 286.733 26.7941 286.47 26.0998C286.421 25.938 286.322 25.7959 286.187 25.6938C286.052 25.5917 285.888 25.5348 285.719 25.5312L285.249 25.5051Z" fill="#004E3F"/>
<path d="M200.02 18.7286V10.2334H189.816V18.7286H181.329V28.9424H189.816V37.4375H200.02V28.9424H208.507V18.7286H200.02ZM192.075 19.186C192.414 19.1337 192.688 19.5454 193.067 19.3951C193.265 19.2717 193.488 19.1936 193.72 19.1664V19.1272C193.78 19.0349 193.853 18.9514 193.935 18.8789H193.864C193.72 18.9181 192.773 19.0749 192.649 18.8789C192.621 18.8048 192.614 18.7241 192.63 18.6464C192.647 18.5688 192.685 18.4974 192.741 18.441C192.806 18.4054 192.876 18.3811 192.95 18.3692C193.005 18.3546 193.059 18.3372 193.113 18.3169H193.165C193.292 18.2478 193.432 18.2055 193.576 18.1927H193.635C193.812 18.1796 193.99 18.1906 194.164 18.2254C194.413 18.2313 194.66 18.168 194.876 18.0424C195.089 17.8812 195.334 17.7656 195.594 17.7026C196.137 17.6405 196.687 17.7405 197.174 17.9901C197.664 18.2049 198.096 18.5322 198.437 18.9454C198.777 19.3586 199.015 19.8463 199.132 20.3688C199.206 20.699 199.221 21.0396 199.178 21.3751H198.035C198.084 21.116 198.084 20.8501 198.035 20.591C197.975 20.2101 197.833 19.8469 197.619 19.5264C197.405 19.206 197.124 18.936 196.795 18.7351C196.464 18.504 196.08 18.3622 195.679 18.3234C195.595 18.3041 195.508 18.3041 195.424 18.3234C195.146 18.4723 194.903 18.6796 194.712 18.9311C194.712 19.0226 194.66 19.3167 194.458 19.4082C194.255 19.4997 194.118 19.5258 193.968 19.5716L193.785 19.6304C193.577 19.7277 193.358 19.8001 193.132 19.846C193.054 19.846 192.989 19.846 192.969 19.7741C192.95 19.7022 193.015 19.65 193.165 19.565C193.331 19.4788 193.487 19.3735 193.629 19.2513C193.293 19.3647 192.985 19.5498 192.728 19.7937C192.349 19.931 192.14 19.4539 191.768 19.65C192.14 19.3494 192.538 19.9702 192.865 19.5258C192.578 19.5258 192.395 19.1795 192.075 19.186ZM195.509 23.695L195.463 24.6229L195.665 24.5184C196.072 24.3008 196.436 24.0132 196.743 23.6688C197.495 23.4425 198.198 23.0743 198.812 22.5841C198.663 22.8771 198.486 23.155 198.283 23.414C197.706 24.2099 196.944 24.8535 196.064 25.2895L195.411 25.5704L195.293 28.2824C195.356 28.2671 195.412 28.2322 195.453 28.1828C195.494 28.1334 195.518 28.0721 195.522 28.0079L195.561 27.1453C195.67 27.2208 195.761 27.3177 195.831 27.4301C195.901 27.5425 195.947 27.668 195.966 27.7988C195.995 27.9498 195.995 28.1052 195.966 28.2562C195.927 28.4343 195.825 28.5922 195.679 28.7006L195.522 28.7921C196.353 28.8799 197.158 29.1379 197.885 29.5501H194.177C193.932 29.7621 193.765 30.0494 193.7 30.3669C193.658 30.574 193.679 30.789 193.759 30.9845C193.839 31.18 193.975 31.3472 194.151 31.4648C194.334 31.58 194.55 31.6306 194.765 31.6086C194.87 31.5949 194.97 31.5531 195.054 31.4875C195.138 31.422 195.202 31.3352 195.241 31.2361L195.346 31.2687C195.305 31.3933 195.233 31.505 195.135 31.5923C195.038 31.6795 194.919 31.7393 194.791 31.7654C194.536 31.8115 194.274 31.7701 194.046 31.6478C193.82 31.5198 193.637 31.327 193.52 31.0941C193.404 30.8613 193.36 30.599 193.394 30.3408C193.423 30.0616 193.521 29.7942 193.681 29.5632H191.97C192.743 29.1243 193.604 28.8631 194.49 28.7986C194.512 28.7796 194.536 28.7642 194.562 28.7529L194.477 26.9035V26.6487V26.1324H194.432C194.379 26.1625 194.336 26.2066 194.308 26.2596C194.279 26.3127 194.265 26.3727 194.268 26.433L194.314 27.2825C194.171 27.2347 194.041 27.1549 193.933 27.049C193.825 26.9432 193.743 26.8142 193.693 26.6718C193.642 26.5294 193.625 26.3773 193.642 26.2273C193.659 26.0772 193.711 25.933 193.792 25.8057C193.943 25.5304 194.17 25.3038 194.445 25.1522L194.379 23.6688C192.809 23.5136 191.36 22.7546 190.338 21.5516H199.596C198.567 22.7748 197.099 23.5446 195.509 23.695Z" fill="#004E3F"/>
<path d="M320.784 3.40461V9.99163C323.17 11.4153 325.146 13.4348 326.518 15.8523C327.89 18.2699 328.611 21.0027 328.611 23.7832C328.611 26.5637 327.89 29.2965 326.518 31.7141C325.146 34.1317 323.17 36.1511 320.784 37.5748V44.3056H11.2158V37.6467C8.82822 36.2234 6.85101 34.2037 5.47788 31.7855C4.10476 29.3672 3.38283 26.6334 3.38283 23.8518C3.38283 21.0703 4.10476 18.3364 5.47788 15.9182C6.85101 13.4999 8.82822 11.4802 11.2158 10.057V3.40461H320.784ZM324.166 0.0196134H7.83402V8.27299C5.40322 10.0812 3.42872 12.4336 2.06837 15.142C0.70801 17.8505 -0.000488281 20.84 -0.000488281 23.8714C-0.000488281 26.9029 0.70801 29.8923 2.06837 32.6008C3.42872 35.3093 5.40322 37.6616 7.83402 39.4699V47.6906H324.172V39.3457C326.603 37.5375 328.577 35.1851 329.938 32.4766C331.298 29.7682 332.007 26.7787 332.007 23.7473C332.007 20.7158 331.298 17.7263 329.938 15.0179C328.577 12.3094 326.603 9.95706 324.172 8.14883V0L324.166 0.0196134Z" fill="#004E3F"/>
<path fill-rule="evenodd" clip-rule="evenodd" d="M11.229 28.7856L14.6304 23.6754L7.82767 18.5718H18.0382V28.7856H11.229Z" fill="#004E3F"/>
<path fill-rule="evenodd" clip-rule="evenodd" d="M320.784 28.7856L317.376 23.6754L324.185 18.5718H313.981V28.7856H320.784Z" fill="#004E3F"/>
<path d="M55.7142 68.0985V67.445L56.1647 67.3862L56.5955 67.3143C56.7023 67.2922 56.807 67.2617 56.9089 67.2229C56.9872 67.1837 57.0329 67.151 57.0329 67.1052C57.0298 67.0447 57.0166 66.985 56.9938 66.9288L56.9089 66.7066L56.256 64.8377C56.2281 64.7763 56.1855 64.7228 56.132 64.6817C56.0785 64.6407 56.0157 64.6135 55.9492 64.6024C55.7854 64.5579 55.6163 64.5359 55.4465 64.5371H53.2072C52.8808 64.5371 52.685 64.6351 52.6131 64.8377L52.1235 66.3995C52.1045 66.455 52.0892 66.5118 52.0778 66.5694C52.0711 66.6368 52.0711 66.7046 52.0778 66.772C52.0778 67.1706 52.5087 67.3666 53.3835 67.3666V68.0985H49.7798V67.445C50.0701 67.4173 50.3455 67.3036 50.5711 67.1186C50.7967 66.9336 50.9621 66.6855 51.0463 66.406L54.6762 57.754L56.0994 57.9501L59.6639 66.9223C59.6995 67.0335 59.7678 67.1314 59.8598 67.2033C59.954 67.2755 60.06 67.3307 60.1731 67.3666C60.29 67.4105 60.4101 67.4454 60.5322 67.4712C60.6563 67.4712 60.7738 67.5104 60.8847 67.5235V68.1769L55.7142 68.0985ZM54.4934 60.2568L53.279 63.1844C53.2024 63.328 53.1474 63.4821 53.1158 63.6418C53.1158 63.7268 53.2725 63.766 53.5859 63.766H55.4726C55.7142 63.766 55.8382 63.766 55.8382 63.7006C55.7592 63.4198 55.6611 63.1447 55.5444 62.8773L54.4934 60.2568Z" fill="#004E3F"/>
<path d="M66.5188 62.4852L66.7865 62.1977L67.3218 61.6161L67.9747 60.8711C68.2162 60.6097 68.4317 60.3549 68.6275 60.1131C68.8234 59.8713 68.9931 59.6622 69.1237 59.4596C69.2202 59.3511 69.2896 59.2212 69.3261 59.0806C69.3261 58.7735 68.9605 58.6166 68.2358 58.6166V57.9631H72.3357V58.6166C72.0141 58.6146 71.693 58.6408 71.376 58.695C71.0866 58.7439 70.8222 58.8889 70.6252 59.1067L67.5177 62.5244C67.9089 62.5728 68.2926 62.6693 68.6602 62.8119C68.9543 62.9351 69.2327 63.093 69.4893 63.2824C69.7091 63.4435 69.9029 63.6375 70.0638 63.8575C70.2019 64.044 70.3221 64.2431 70.4229 64.4522C70.5631 64.7673 70.6788 65.0928 70.7689 65.4258C70.8516 65.7482 70.9364 66.0357 71.0235 66.2884C71.085 66.5096 71.182 66.7192 71.3107 66.9092C71.362 66.9878 71.4331 67.0514 71.5167 67.0939C71.6004 67.1363 71.6937 67.156 71.7873 67.151C72.0093 67.151 72.1855 66.9157 72.3096 66.4452L72.8123 66.5955C72.8049 66.7694 72.758 66.9392 72.6752 67.0922C72.5718 67.2965 72.435 67.482 72.2704 67.6411C72.0752 67.8198 71.8554 67.9695 71.6176 68.0855C71.3579 68.2064 71.0749 68.2689 70.7884 68.2684C70.3023 68.3034 69.8161 68.2016 69.3848 67.9744C69.1046 67.809 68.8918 67.5498 68.7842 67.2425C68.5688 66.6413 68.3794 66.0924 68.2228 65.6023C68.0876 65.1696 67.9195 64.748 67.72 64.3411C67.5712 64.031 67.3626 63.7534 67.1064 63.5242C66.854 63.3312 66.5425 63.2319 66.225 63.2432C66.0227 63.2432 65.8986 63.2824 65.8594 63.3478V66.5237C65.8503 66.6554 65.8735 66.7874 65.927 66.9081C65.9805 67.0288 66.0626 67.1346 66.1663 67.2163C66.4828 67.4049 66.8504 67.4894 67.2174 67.4581V68.1116H61.9946V67.4581C62.9086 67.4581 63.3721 67.1445 63.3721 66.5237V59.6034C63.3721 58.9499 62.8759 58.6232 61.8836 58.6232V57.9697H67.1912V58.6232C66.3208 58.6232 65.8855 58.9499 65.8855 59.6034V62.3153C65.9006 62.3659 65.9332 62.4095 65.9775 62.4382C66.0217 62.467 66.0748 62.479 66.1271 62.4721L66.5188 62.4852Z" fill="#004E3F"/>
<path d="M77.787 66.7067C77.7838 66.7557 77.7908 66.8049 77.8077 66.851C77.8246 66.8971 77.8509 66.9393 77.8849 66.9746C77.9584 67.0468 78.0479 67.1005 78.1461 67.1315C78.2648 67.1681 78.3876 67.1901 78.5117 67.1968C78.6488 67.1968 78.7989 67.1968 78.9491 67.1968H80.5094C80.6661 67.1968 80.8097 67.1968 80.9468 67.1968C81.0709 67.1907 81.1938 67.1687 81.3124 67.1315C81.4113 67.1022 81.5012 67.0483 81.5735 66.9746C81.6076 66.9393 81.6339 66.8971 81.6508 66.851C81.6676 66.8049 81.6747 66.7557 81.6715 66.7067V59.5185C81.6715 58.865 81.2145 58.584 80.294 58.584V57.9305H85.7257V58.584C84.6942 58.584 84.1849 58.8911 84.1849 59.5185V66.2101C84.1849 66.9812 84.6485 67.3863 85.5755 67.419H86.1565V70.8955L85.2687 70.9739C85.2059 70.4865 85.1011 70.0055 84.9553 69.5363C84.852 69.2075 84.6732 68.9075 84.433 68.6606C84.2118 68.4407 83.9337 68.2868 83.63 68.2162C83.2605 68.126 82.8808 68.0843 82.5006 68.0921H73.883V67.4386C74.8165 67.4386 75.2801 67.0334 75.2801 66.2297V59.5446C75.2801 58.8912 74.8165 58.6102 73.883 58.6102V57.9567H79.2886V58.6102C78.2832 58.6102 77.787 58.9173 77.787 59.5446V66.7067Z" fill="#004E3F"/>
<path d="M95.995 60.8123L91.6078 66.5433C91.6078 67.1641 92.0648 67.4778 92.9853 67.4778V68.1312H87.5536V67.4778C88.5786 67.4778 89.0944 67.1641 89.0944 66.5433V59.8452C89.0944 59.0414 88.5786 58.6363 87.5536 58.6363V57.9828H92.9853V58.6363C92.0648 58.6363 91.6078 59.0414 91.6078 59.8452V65.2102L95.9493 59.4793C95.8187 58.9173 95.3356 58.6363 94.4999 58.6363V57.9828H99.899V58.6363C98.972 58.6363 98.5084 59.0414 98.5084 59.8452V66.5433C98.5084 67.1641 98.972 67.4778 99.899 67.4778V68.1312H94.4999V67.4778C95.4988 67.4778 95.995 67.1641 95.995 66.5433V60.8123Z" fill="#004E3F"/>
<path d="M111.441 62.9884C111.457 63.7726 111.317 64.5522 111.03 65.2821C110.778 65.9177 110.39 66.4908 109.894 66.9615C109.399 67.4211 108.815 67.7726 108.177 67.994C107.487 68.2348 106.76 68.3542 106.029 68.3469C105.328 68.353 104.63 68.2517 103.96 68.0463C103.339 67.8605 102.767 67.5416 102.282 67.1118C101.781 66.6657 101.392 66.1084 101.146 65.4847C100.856 64.7284 100.716 63.9226 100.735 63.1126C100.714 62.2951 100.849 61.4811 101.133 60.7143C101.369 60.0842 101.749 59.5181 102.243 59.061C102.726 58.6191 103.301 58.2909 103.927 58.1004C104.608 57.8915 105.317 57.7879 106.029 57.7933C106.743 57.7885 107.454 57.9011 108.131 58.1265C108.768 58.3293 109.355 58.6632 109.855 59.1068C110.356 59.5558 110.752 60.1089 111.017 60.7274C111.315 61.443 111.46 62.2133 111.441 62.9884ZM106.153 67.5627C106.601 67.5877 107.046 67.4762 107.43 67.2429C107.813 67.0096 108.117 66.6654 108.301 66.2558C108.517 65.8059 108.662 65.3254 108.732 64.8312C108.813 64.2488 108.852 63.6614 108.85 63.0734C108.851 62.5049 108.811 61.9372 108.732 61.3743C108.67 60.8638 108.525 60.367 108.301 59.904C108.104 59.4878 107.803 59.1299 107.426 58.865C106.982 58.5853 106.462 58.4484 105.938 58.4729C105.461 58.45 104.99 58.5806 104.593 58.8454C104.251 59.0979 103.985 59.4391 103.823 59.8321C103.629 60.2849 103.51 60.7659 103.47 61.2567C103.411 61.8211 103.383 62.3883 103.385 62.9557C103.382 63.5614 103.423 64.1664 103.509 64.7659C103.574 65.2744 103.722 65.7689 103.947 66.2296C104.143 66.6467 104.461 66.9946 104.858 67.2278C105.255 67.4611 105.713 67.5687 106.173 67.5366L106.153 67.5627Z" fill="#004E3F"/>
<path d="M118.642 68.0986V67.4451C119.641 67.4451 120.137 67.1314 120.137 66.5106V63.4132C120.004 63.3524 119.864 63.3085 119.719 63.2825C119.504 63.2453 119.285 63.2278 119.067 63.2302H117.219C116.879 63.2221 116.541 63.2844 116.227 63.4132V66.5106C116.227 67.1314 116.684 67.4451 117.604 67.4451V68.0986H112.173V67.4451C113.204 67.4451 113.72 67.1314 113.72 66.5106V59.8452C113.72 59.0414 113.204 58.6363 112.173 58.6363V57.9828H117.604V58.6363C116.684 58.6363 116.227 59.0414 116.227 59.8517V62.3611C116.375 62.4114 116.528 62.4464 116.684 62.4656C116.861 62.4877 117.04 62.4986 117.219 62.4983H119.054C119.411 62.5245 119.77 62.4824 120.111 62.3741V59.8517C120.111 59.0414 119.615 58.6363 118.616 58.6363V57.9828H124.015V58.6363C123.088 58.6363 122.625 59.0414 122.625 59.8452V66.5433C122.625 67.1641 123.088 67.4778 124.015 67.4778V68.1312L118.642 68.0986Z" fill="#004E3F"/>
<path d="M125.595 68.0986V67.4451C126.516 67.4451 126.973 67.1445 126.973 66.5564V59.7864C126.973 59.0218 126.477 58.6363 125.491 58.6363V57.9828H134.272L134.396 60.9888L133.462 61.0607C133.405 60.6053 133.271 60.1632 133.064 59.7537C132.907 59.4828 132.682 59.2576 132.411 59.1002C132.151 58.9606 131.863 58.8782 131.569 58.8584C131.247 58.8323 130.894 58.8192 130.511 58.8192C130.244 58.8041 129.978 58.8534 129.734 58.963C129.651 58.9968 129.58 59.0547 129.53 59.1292C129.48 59.2037 129.453 59.2915 129.454 59.3812V62.067C129.446 62.1156 129.45 62.1653 129.465 62.2121C129.48 62.2589 129.505 62.3017 129.54 62.3371C129.574 62.3725 129.615 62.3995 129.662 62.4161C129.708 62.4328 129.757 62.4385 129.806 62.4329C130.025 62.4345 130.243 62.4193 130.459 62.3872C130.654 62.3614 130.839 62.2897 131.001 62.1781C131.174 62.0596 131.31 61.8941 131.392 61.7011C131.51 61.4231 131.578 61.1268 131.595 60.8254H132.483V64.9162H131.595C131.574 64.6303 131.521 64.3476 131.438 64.0732C131.384 63.8871 131.283 63.7182 131.144 63.5831C131.006 63.4662 130.839 63.3874 130.661 63.3543C130.428 63.3109 130.193 63.2847 129.956 63.2759C129.61 63.2759 129.434 63.4458 129.434 63.6876V66.5564C129.434 67.0465 129.819 67.2883 130.583 67.2883C131.085 67.3018 131.587 67.2535 132.078 67.1445C132.409 67.065 132.719 66.9132 132.985 66.7001C133.227 66.4911 133.421 66.2326 133.553 65.9421C133.697 65.635 133.841 65.2886 133.997 64.8377L134.866 64.9619L134.441 68.1312L125.595 68.0986Z" fill="#004E3F"/>
<path d="M136.113 68.0986V67.4451C137.02 67.4451 137.477 67.1119 137.477 66.4453V59.4335C137.477 58.9042 137 58.6363 136.054 58.6363V57.9828H139.514C139.899 57.9828 140.219 57.9828 140.48 57.9828C140.741 57.9828 141.042 57.9828 141.375 57.9828C142.415 57.8987 143.455 58.1606 144.332 58.7278C144.646 58.9956 144.895 59.331 145.062 59.709C145.228 60.087 145.306 60.4977 145.292 60.9104C145.292 61.2884 145.221 61.663 145.083 62.0148C144.946 62.3664 144.721 62.6769 144.43 62.9166C144.064 63.1962 143.647 63.4005 143.202 63.5177C142.605 63.6797 141.987 63.7546 141.368 63.7399C141.061 63.7399 140.807 63.7399 140.611 63.7399C140.418 63.72 140.226 63.6895 140.036 63.6484V66.4192C140.03 66.5707 140.063 66.7212 140.13 66.857C140.197 66.9929 140.297 67.1097 140.421 67.1968C140.754 67.4067 141.145 67.5051 141.538 67.4778V68.1313L136.113 68.0986ZM139.984 62.8708C140.186 62.9215 140.391 62.9564 140.598 62.9754C140.836 63.0009 141.076 63.0118 141.316 63.008C141.576 63.0214 141.834 62.9602 142.06 62.8316C142.234 62.7176 142.372 62.5567 142.458 62.3676C142.548 62.1493 142.601 61.9173 142.615 61.6815C142.615 61.4266 142.648 61.1587 142.648 60.8777C142.651 60.5465 142.62 60.2159 142.556 59.891C142.506 59.6355 142.391 59.397 142.223 59.1983C142.048 59.0014 141.822 58.8566 141.57 58.78C141.232 58.6794 140.879 58.6331 140.526 58.6428C140.16 58.6428 139.977 58.8715 139.977 59.3355L139.984 62.8708Z" fill="#004E3F"/>
<path d="M152.747 68.0986V67.4451C153.746 67.4451 154.249 67.1314 154.249 66.5106V63.4132C154.113 63.3525 153.971 63.3086 153.824 63.2825C153.609 63.2446 153.39 63.2271 153.172 63.2302H151.337C150.997 63.2215 150.659 63.2839 150.345 63.4132V66.5106C150.345 67.1314 150.802 67.4451 151.716 67.4451V68.0986H146.284V67.4451C147.315 67.4451 147.831 67.1314 147.831 66.5106V59.8452C147.831 59.0414 147.315 58.6363 146.284 58.6363V57.9828H151.716V58.6363C150.802 58.6363 150.345 59.0414 150.345 59.8517V62.3611C150.493 62.4121 150.646 62.4471 150.802 62.4656C150.979 62.4879 151.158 62.4988 151.337 62.4983H153.172C153.529 62.5234 153.887 62.4813 154.229 62.3741V59.8517C154.229 59.0414 153.726 58.6363 152.728 58.6363V57.9828H158.127V58.6363C157.2 58.6363 156.736 59.0414 156.736 59.8452V66.5433C156.736 67.1641 157.2 67.4778 158.127 67.4778V68.1312L152.747 68.0986Z" fill="#004E3F"/>
<path d="M169.695 62.9884C169.711 63.7726 169.571 64.5522 169.284 65.2821C169.029 65.9181 168.639 66.4911 168.141 66.9615C167.649 67.421 167.067 67.7727 166.431 67.994C165.738 68.2348 165.01 68.3542 164.276 68.3469C163.577 68.353 162.882 68.2517 162.213 68.0463C161.592 67.8592 161.017 67.5405 160.529 67.1118C160.033 66.6635 159.646 66.1067 159.4 65.4846C159.104 64.7297 158.962 63.9232 158.982 63.1125C158.964 62.2952 159.099 61.4817 159.38 60.7143C159.612 60.0922 159.986 59.5324 160.471 59.0789C160.955 58.6254 161.538 58.2905 162.174 58.1004C162.855 57.8919 163.564 57.7884 164.276 57.7933C164.993 57.7886 165.705 57.9012 166.385 58.1265C167.019 58.3308 167.604 58.6646 168.102 59.1067C168.604 59.5548 169.001 60.1081 169.264 60.7273C169.564 61.4425 169.711 62.2128 169.695 62.9884ZM164.4 67.5627C164.849 67.5905 165.295 67.4801 165.679 67.2465C166.063 67.0128 166.367 66.6671 166.548 66.2557C166.763 65.8042 166.904 65.321 166.966 64.8246C167.042 64.2417 167.079 63.6545 167.077 63.0668C167.077 62.4986 167.04 61.9311 166.966 61.3678C166.901 60.8579 166.756 60.3616 166.535 59.8974C166.339 59.4792 166.034 59.1206 165.654 58.8584C165.212 58.5776 164.695 58.4407 164.172 58.4663C163.695 58.4416 163.223 58.5723 162.827 58.8388C162.483 59.0909 162.215 59.4321 162.05 59.8256C161.863 60.2805 161.745 60.7605 161.698 61.2501C161.645 61.7925 161.613 62.3545 161.613 62.9492C161.612 63.5547 161.654 64.1595 161.737 64.7593C161.805 65.2672 161.953 65.7612 162.174 66.2231C162.371 66.6401 162.688 66.988 163.085 67.2213C163.483 67.4545 163.941 67.5621 164.4 67.53V67.5627Z" fill="#004E3F"/>
<path d="M170.557 68.0986V67.4451C171.471 67.4451 171.934 67.1445 171.934 66.5564V59.7864C171.934 59.0218 171.438 58.6363 170.446 58.6363V57.9828H179.24L179.357 60.9888L178.424 61.0607C178.369 60.6058 178.236 60.1637 178.032 59.7537C177.876 59.4817 177.651 59.2561 177.379 59.1002C177.122 58.9598 176.836 58.8772 176.544 58.8584C176.221 58.8323 175.869 58.8192 175.486 58.8192C175.217 58.804 174.948 58.8533 174.702 58.963C174.621 58.9985 174.552 59.057 174.503 59.1313C174.454 59.2055 174.428 59.2924 174.428 59.3812V62.067C174.421 62.1156 174.425 62.1653 174.44 62.2121C174.455 62.2589 174.48 62.3017 174.514 62.3371C174.548 62.3725 174.59 62.3995 174.636 62.4161C174.683 62.4328 174.732 62.4385 174.781 62.4329C174.999 62.4345 175.218 62.4193 175.434 62.3872C175.628 62.3591 175.813 62.2876 175.976 62.1781C176.147 62.0576 176.282 61.8927 176.367 61.7011C176.485 61.4231 176.553 61.1268 176.57 60.8254H177.451V64.9162H176.628C176.607 64.6303 176.555 64.3476 176.472 64.0732C176.418 63.8853 176.314 63.7158 176.171 63.5831C176.035 63.4662 175.871 63.3873 175.695 63.3543C175.462 63.3109 175.226 63.2847 174.99 63.2759C174.644 63.2759 174.467 63.4458 174.467 63.6876V66.5564C174.467 67.0465 174.853 67.2883 175.616 67.2883C176.117 67.3018 176.617 67.2535 177.105 67.1445C177.438 67.0651 177.75 66.9134 178.019 66.7001C178.26 66.4911 178.454 66.2326 178.587 65.9421C178.724 65.635 178.874 65.2886 179.024 64.8377L179.899 64.9619L179.468 68.1312L170.557 68.0986Z" fill="#004E3F"/>
<path d="M196.397 62.9884C196.412 63.7727 196.272 64.5522 195.985 65.2821C195.731 65.9181 195.341 66.4912 194.843 66.9615C194.351 67.4211 193.768 67.7727 193.132 67.994C192.442 68.2342 191.715 68.3536 190.985 68.3469C190.283 68.353 189.585 68.2517 188.915 68.0463C188.293 67.8592 187.719 67.5405 187.231 67.1118C186.734 66.6636 186.348 66.1068 186.101 65.4847C185.811 64.7284 185.671 63.9226 185.69 63.1126C185.669 62.2951 185.804 61.4811 186.088 60.7143C186.324 60.0858 186.702 59.5202 187.191 59.061C187.676 58.6218 188.251 58.2939 188.876 58.1004C189.559 57.8914 190.27 57.7878 190.985 57.7933C191.699 57.7885 192.409 57.9011 193.087 58.1266C193.721 58.3292 194.306 58.6632 194.804 59.1068C195.306 59.5556 195.705 60.1086 195.972 60.7274C196.267 61.444 196.412 62.2136 196.397 62.9884ZM191.102 67.5627C191.562 67.5761 192.015 67.4558 192.408 67.2164C192.76 66.9781 193.044 66.6513 193.23 66.2689C193.44 65.8158 193.579 65.3331 193.642 64.8377C193.72 64.2552 193.757 63.6677 193.753 63.0799C193.756 62.5116 193.719 61.9439 193.642 61.3809C193.577 60.871 193.431 60.3747 193.211 59.9105C193.014 59.4923 192.71 59.1338 192.329 58.8715C191.888 58.5908 191.37 58.4538 190.847 58.4794C190.371 58.4547 189.899 58.5854 189.503 58.8519C189.159 59.104 188.89 59.4452 188.726 59.8387C188.538 60.293 188.421 60.7734 188.38 61.2632C188.321 61.8276 188.292 62.3948 188.295 62.9623C188.292 63.5676 188.332 64.1724 188.412 64.7724C188.48 65.2803 188.628 65.7743 188.85 66.2362C189.043 66.629 189.336 66.9646 189.698 67.2099C190.118 67.4721 190.607 67.6019 191.102 67.5823V67.5627Z" fill="#004E3F"/>
<path d="M197.206 58.6363V57.9828H205.804L206.065 60.9234L205.06 61.0149C204.989 60.5991 204.857 60.1961 204.668 59.819C204.514 59.5461 204.288 59.3202 204.015 59.1656C203.738 59.0159 203.434 58.9205 203.121 58.8846C202.729 58.8433 202.334 58.8236 201.939 58.8258C201.391 58.8258 201.117 59.0022 201.117 59.3485V62.2892C201.3 62.2587 201.489 62.2326 201.685 62.2108C201.887 62.2108 202.135 62.2108 202.442 62.2108C203.103 62.1976 203.763 62.279 204.401 62.4526C204.874 62.5835 205.318 62.8055 205.706 63.106C206.029 63.3539 206.283 63.68 206.444 64.0536C206.595 64.4226 206.673 64.8178 206.673 65.2168C206.705 65.6481 206.632 66.081 206.459 66.4774C206.286 66.8739 206.019 67.2219 205.68 67.4909C204.717 68.0649 203.599 68.3252 202.481 68.2358C202.142 68.2358 201.828 68.2358 201.587 68.2358C201.345 68.2358 200.999 68.2358 200.614 68.2358H197.154V67.5823C198.101 67.5823 198.577 67.3144 198.577 66.7851V59.8452C198.629 59.0414 198.172 58.6363 197.206 58.6363ZM201.123 66.7851C201.115 66.8844 201.134 66.9841 201.179 67.0729C201.224 67.1618 201.293 67.2364 201.378 67.2883C201.597 67.4035 201.843 67.4577 202.09 67.4451C202.421 67.4551 202.751 67.4019 203.062 67.2883C203.319 67.2056 203.547 67.0488 203.715 66.8374C203.876 66.6315 203.99 66.3928 204.048 66.1382C204.112 65.8022 204.142 65.4607 204.139 65.1187C204.166 64.5676 204.01 64.0232 203.696 63.57C203.517 63.3649 203.293 63.2051 203.041 63.104C202.789 63.0029 202.517 62.9632 202.246 62.9884H201.698C201.521 63.0073 201.347 63.0401 201.175 63.0864L201.123 66.7851Z" fill="#004E3F"/>
<path d="M211.706 66.7066C211.7 66.81 211.734 66.9115 211.801 66.9905C211.868 67.0695 211.962 67.1199 212.065 67.1314C212.329 67.189 212.598 67.2175 212.868 67.2164H213.971C214.241 67.2168 214.51 67.1883 214.774 67.1314C214.876 67.1184 214.97 67.0676 215.036 66.9889C215.103 66.9103 215.138 66.8096 215.133 66.7066V59.5184C215.133 58.865 214.67 58.584 213.756 58.584V57.9305H219.188V58.584C218.156 58.584 217.64 58.8911 217.64 59.5184V66.7066C217.646 66.8063 217.686 66.9008 217.754 66.9737C217.822 67.0465 217.914 67.0931 218.013 67.1053C218.272 67.1602 218.537 67.1865 218.802 67.1837H219.906C220.176 67.1841 220.445 67.1556 220.709 67.0987C220.811 67.0872 220.906 67.0368 220.973 66.9578C221.039 66.8788 221.073 66.7773 221.068 66.674V59.4858C221.068 58.8323 220.611 58.5513 219.69 58.5513V57.8978H225.122V58.5513C224.091 58.5513 223.575 58.8584 223.575 59.4858V66.1773C223.575 66.9484 224.038 67.3536 224.965 67.3863H225.553V70.8628L224.665 70.9412C224.603 70.4466 224.496 69.9588 224.345 69.4839C224.239 69.1503 224.053 68.8475 223.803 68.6017C223.567 68.3845 223.276 68.2374 222.961 68.177C222.564 68.0921 222.159 68.0527 221.753 68.0593H207.802V67.4059C208.729 67.4059 209.193 67.0007 209.193 66.1969V59.5446C209.193 58.8911 208.729 58.6101 207.802 58.6101V57.9566H213.188V58.6101C212.189 58.6101 211.693 58.9172 211.693 59.5446L211.706 66.7066Z" fill="#004E3F"/>
<path d="M227.022 68.0986V67.4451C227.936 67.4451 228.393 67.1445 228.393 66.5564V59.7864C228.393 59.0218 227.903 58.6363 226.911 58.6363V57.9828H235.698L235.816 60.9888L234.882 61.0607C234.829 60.6047 234.694 60.162 234.484 59.7537C234.33 59.4799 234.105 59.2538 233.831 59.1002C233.571 58.9589 233.284 58.8763 232.989 58.8584C232.676 58.8584 232.336 58.8192 231.938 58.8192C231.669 58.804 231.4 58.8533 231.154 58.963C231.073 58.9985 231.004 59.057 230.955 59.1313C230.906 59.2055 230.88 59.2924 230.88 59.3812V62.067C230.873 62.1156 230.877 62.1653 230.892 62.2121C230.907 62.2589 230.932 62.3017 230.966 62.3371C231 62.3725 231.042 62.3995 231.088 62.4161C231.134 62.4328 231.184 62.4385 231.233 62.4329C231.451 62.4343 231.669 62.4191 231.886 62.3872C232.08 62.3591 232.265 62.2876 232.427 62.1781C232.597 62.0557 232.732 61.8913 232.819 61.7011C232.934 61.4227 233.001 61.1264 233.015 60.8254H233.903V64.9162H233.015C232.999 64.6302 232.949 64.3471 232.865 64.0732C232.811 63.8853 232.708 63.7158 232.565 63.5831C232.427 63.4649 232.26 63.3859 232.081 63.3543C231.851 63.3105 231.617 63.2843 231.383 63.2759C231.03 63.2759 230.861 63.4458 230.861 63.6876V66.5564C230.861 67.0465 231.246 67.2883 232.01 67.2883C232.51 67.3018 233.01 67.2535 233.498 67.1445C233.832 67.0651 234.144 66.9134 234.412 66.7001C234.65 66.489 234.841 66.2309 234.974 65.9421C235.14 65.5818 235.288 65.2132 235.417 64.8377L236.292 64.9619L235.907 68.0986H227.022Z" fill="#004E3F"/>
<path d="M246.777 65.0991C246.639 65.562 246.435 66.0023 246.17 66.4061C245.919 66.7999 245.606 67.1507 245.243 67.4451C244.89 67.7297 244.49 67.9508 244.061 68.0986C243.609 68.2527 243.135 68.33 242.658 68.3273C241.854 68.3486 241.054 68.2155 240.301 67.9352C239.702 67.7021 239.166 67.333 238.734 66.857C238.326 66.3896 238.029 65.8354 237.866 65.2363C237.68 64.573 237.59 63.8864 237.598 63.1975C237.591 62.4651 237.672 61.7345 237.84 61.0214C237.981 60.402 238.25 59.8189 238.629 59.3093C238.992 58.8241 239.47 58.4377 240.02 58.1854C240.666 57.8946 241.369 57.7539 242.077 57.7737C242.312 57.7737 242.56 57.7737 242.827 57.8194C243.093 57.8531 243.357 57.9033 243.617 57.9697C243.869 58.0311 244.114 58.1187 244.348 58.2311C244.563 58.3278 244.762 58.4579 244.936 58.6166C245.187 58.2236 245.576 57.9391 246.026 57.8194C246.44 58.984 246.627 60.2176 246.575 61.4527H245.504C245.359 60.6286 244.998 59.8576 244.459 59.2179C244.223 58.9928 243.942 58.8188 243.636 58.7064C243.329 58.594 243.003 58.5457 242.677 58.5644C242.228 58.5431 241.783 58.6618 241.404 58.9042C241.077 59.1399 240.813 59.4516 240.634 59.8125C240.433 60.2238 240.3 60.6653 240.242 61.1195C240.171 61.6107 240.136 62.1065 240.138 62.6028C240.135 63.243 240.174 63.8826 240.255 64.5175C240.321 65.0539 240.471 65.5766 240.699 66.0663C240.895 66.485 241.196 66.8453 241.574 67.1118C241.991 67.3821 242.481 67.5168 242.977 67.4974C243.649 67.5202 244.306 67.3024 244.832 66.8831C245.424 66.3315 245.873 65.6426 246.137 64.8769L246.777 65.0991Z" fill="#004E3F"/>
<path d="M249.708 68.0986V67.4451C250.772 67.4451 251.301 67.0138 251.301 66.1381V59.2113C251.301 58.9107 251.092 58.7539 250.648 58.7539C250.365 58.7459 250.084 58.8017 249.826 58.9173C249.594 59.028 249.39 59.1913 249.232 59.3943C249.046 59.6394 248.9 59.9131 248.801 60.2046C248.67 60.5714 248.565 60.947 248.488 61.3286L247.541 61.1913L247.972 57.7867C248.259 57.8329 248.549 57.8634 248.84 57.8782C249.16 57.8782 249.408 57.9109 249.591 57.9109H255.636C255.858 57.9109 256.132 57.9109 256.459 57.8782C256.756 57.8641 257.053 57.8335 257.347 57.7867V61.1456L256.459 61.2175C256.46 60.5806 256.284 59.956 255.95 59.4139C255.765 59.1996 255.532 59.0331 255.269 58.9284C255.007 58.8237 254.723 58.7841 254.441 58.8127C254.004 58.8127 253.789 58.9499 253.789 59.2113V66.1381C253.789 66.9942 254.33 67.4451 255.414 67.4451V68.0986H249.708Z" fill="#004E3F"/>
<path d="M260.01 59.6034C260.01 58.9499 259.521 58.6493 258.528 58.6493V57.9958H263.81C264.792 57.9372 265.774 58.1283 266.663 58.5513C266.987 58.7433 267.25 59.023 267.422 59.3583C267.594 59.6936 267.668 60.0708 267.636 60.4464C267.652 60.7179 267.61 60.9899 267.512 61.2437C267.414 61.4974 267.262 61.727 267.068 61.9167C266.599 62.3081 266.04 62.5774 265.442 62.7008C265.846 62.7613 266.243 62.8575 266.63 62.9884C266.953 63.0948 267.253 63.2635 267.512 63.485C267.75 63.7016 267.935 63.9698 268.053 64.2692C268.19 64.6277 268.254 65.0097 268.243 65.3931C268.264 65.8846 268.151 66.3726 267.916 66.8046C267.7 67.1668 267.392 67.4647 267.022 67.6672C266.615 67.8862 266.173 68.0322 265.716 68.0985C265.204 68.1765 264.687 68.2136 264.169 68.2096H261.512C260.611 68.2096 259.632 68.2096 258.587 68.1704V67.5169C259.534 67.5169 260.004 67.2621 260.004 66.7654L260.01 59.6034ZM262.524 62.1258C262.517 62.1717 262.521 62.2186 262.536 62.2626C262.551 62.3066 262.576 62.3465 262.609 62.379C262.642 62.4115 262.682 62.4357 262.726 62.4497C262.771 62.4636 262.818 62.4668 262.863 62.459C263.262 62.4672 263.66 62.4343 264.051 62.361C264.311 62.3156 264.554 62.203 264.756 62.0343C264.92 61.8751 265.032 61.67 265.076 61.4462C265.133 61.1623 265.16 60.8731 265.155 60.5836C265.186 60.109 265.082 59.6353 264.854 59.2178C264.708 59.0451 264.521 58.912 264.31 58.8309C264.099 58.7498 263.871 58.7233 263.647 58.7539C263.355 58.7375 263.062 58.7774 262.785 58.8715C262.71 58.8938 262.644 58.9394 262.598 59.0017C262.551 59.064 262.525 59.1398 262.524 59.2178V62.1258ZM262.524 66.9484C262.525 67.0305 262.553 67.1099 262.602 67.1756C262.651 67.2412 262.72 67.2898 262.798 67.3144C263.1 67.4163 263.42 67.4585 263.738 67.4385C264.267 67.4791 264.791 67.3128 265.2 66.9746C265.561 66.5233 265.732 65.9489 265.677 65.3735C265.687 65.0009 265.632 64.6293 265.514 64.2757C265.421 64.0093 265.245 63.78 265.011 63.6222C264.748 63.4505 264.448 63.3431 264.136 63.3086C263.715 63.2465 263.289 63.2181 262.863 63.2236C262.635 63.2236 262.524 63.3805 262.524 63.6941V66.9484Z" fill="#004E3F"/>
<path d="M280.281 62.9884C280.298 63.7734 280.156 64.5536 279.863 65.2821C279.611 65.9177 279.223 66.4908 278.727 66.9615C278.234 67.4225 277.649 67.7742 277.01 67.994C276.32 68.2354 275.594 68.3548 274.863 68.3469C274.164 68.3531 273.468 68.2517 272.8 68.0463C272.177 67.8621 271.602 67.5431 271.115 67.1118C270.619 66.6633 270.233 66.1065 269.986 65.4847C269.695 64.7284 269.556 63.9226 269.575 63.1126C269.554 62.2951 269.689 61.4811 269.973 60.7143C270.211 60.0854 270.591 59.5198 271.083 59.061C271.566 58.6204 272.142 58.2923 272.767 58.1004C273.448 57.8915 274.157 57.7879 274.869 57.7933C275.583 57.7885 276.294 57.9011 276.971 58.1265C277.608 58.3293 278.195 58.6632 278.695 59.1068C279.195 59.5558 279.592 60.1089 279.857 60.7274C280.155 61.443 280.299 62.2133 280.281 62.9884ZM274.987 67.5627C275.435 67.5905 275.881 67.4802 276.265 67.2465C276.649 67.0129 276.953 66.6671 277.135 66.2558C277.347 65.8039 277.486 65.3207 277.546 64.8247C277.627 64.2423 277.666 63.6548 277.663 63.0668C277.664 62.4984 277.625 61.9306 277.546 61.3678C277.486 60.8577 277.343 60.3609 277.121 59.8975C276.925 59.4792 276.621 59.1207 276.24 58.8584C275.798 58.5796 275.281 58.4429 274.758 58.4664C274.279 58.4426 273.806 58.5731 273.407 58.8388C273.065 59.0913 272.799 59.4325 272.636 59.8256C272.45 60.2805 272.331 60.7605 272.284 61.2502C272.232 61.7925 272.199 62.3545 272.199 62.9492C272.199 63.5547 272.24 64.1595 272.323 64.7593C272.388 65.2679 272.536 65.7623 272.76 66.2231C272.957 66.6401 273.274 66.9881 273.672 67.2213C274.069 67.4545 274.527 67.5622 274.987 67.5301V67.5627Z" fill="#004E3F"/>
<path fill-rule="evenodd" clip-rule="evenodd" d="M44.903 66.1773L46.7114 63.4589L43.0946 60.7469H48.5132V66.1773H44.903Z" fill="#004E3F"/>
<path fill-rule="evenodd" clip-rule="evenodd" d="M287.097 66.1773L285.289 63.4589L288.905 60.7469H283.487V66.1773H287.097Z" fill="#004E3F"/>
</g>
<defs>
<clipPath id="clip0_3_803">
<rect width="332" height="71" fill="white"/>
</clipPath>
</defs>
</svg>
